<svg xmlns="http://www.w3.org/2000/svg" width="256" height="256"><path fill="#1976D2" fill-opacity=".016" fill-rule="evenodd" d="M0 128.004v128.004l128.25-.254 128.25-.254.254-127.75L257.008 0H0zm.485.496c0 70.4.119 99.053.265 63.672s.146-92.98 0-128S.485 58.1.485 128.5"/><path fill="#1976D2" fill-opacity=".123" fill-rule="evenodd" d="M18.5 2.474c-3.975 1.62-7.402 3.975-10.152 6.975C.55 17.953 1 10.692 1 128.141c0 104.325.009 104.809 2.121 110.452 2.561 6.845 7.507 12.565 13.286 15.362 4.258 2.061 4.81 2.07 112.186 1.808 120.7-.294 110.998.313 118.74-7.43 7.761-7.76 7.167 2.17 7.167-119.833v-109l-2.162-4c-2.806-5.192-7.709-10.113-12.785-12.83L235.5.5 130 .264 24.5.028zM50 24.167c-4.752 1.339-9.42 6.058-12.057 12.188-3.226 7.498-2.285 15.619 3.029 26.145 6.792 13.454 9.942 16.739 25.768 26.878 14.116 9.042 14.236 9.15 13.71 12.347-.861 5.225-3.067 9.619-7.718 15.371-12.9 15.952-16.711 21.706-17.83 26.926-1.266 5.905-.665 12.602 1.51 16.807 2.164 4.186 12.641 14.622 16.271 16.209 2.177.951 4.231 3.254 6.498 7.284 4.376 7.78 9.386 12.136 19.298 16.781 5.475 2.566 8.534 4.63 9.276 6.259 1.781 3.909 7.474 7.556 18.469 11.831 23.822 9.264 39.952 8.966 50.915-.938 4.857-4.388 12.321-14.255 15.443-20.416 1.325-2.616 3.335-4.995 4.543-5.379 3.862-1.225 11.123-8.824 13.463-14.09 2.855-6.423 4.623-15.951 4.29-23.127-.25-5.404-.188-5.54 3.336-7.348 6.109-3.135 9.786-12.091 9.786-23.839 0-16.355-14.27-37.149-32.973-48.049C186.099 70.804 177.632 68 170.845 68c-5.636 0-7.539.804-13.711 5.794l-4.365 3.529-12.645-1.124c-28.391-2.525-43.938-10.729-57.736-30.464-7.108-10.167-15.469-19.071-19.869-21.159-3.706-1.759-7.312-1.877-12.519-.409m-2.307 7.62c-.889.982-2.592 3.991-3.784 6.686-1.793 4.053-2.069 6.074-1.599 11.682.312 3.73 1.426 8.719 2.473 11.088 4.493 10.156 24.351 27.361 37.982 32.906 4.529 1.843 8.235 3.597 8.235 3.9s-1.687.361-3.75.13l-3.75-.419 2.424 2.62c1.334 1.441 3.22 2.62 4.191 2.62.972 0 2.045.45 2.385 1 .357.578-.598 1-2.266 1-2.471 0-3.723 1.18-8.751 8.25-3.227 4.537-7.841 10.697-10.253 13.688-6.928 8.588-9.23 13.935-9.23 21.439 0 5.968.285 6.804 3.86 11.326 5.856 7.41 9.487 10.02 15.743 11.318 6.603 1.371 9.23 1.109 23.897-2.385 6.05-1.441 14.665-3.081 19.143-3.643 15.082-1.894 15.964-2.742 12.453-11.982-1.271-3.345-1.52-5.006-.75-4.996 2.207.03 3.627 1.605 4.99 5.533l1.371 3.952 2.54-5.008c1.398-2.754 3.132-8.526 3.855-12.826 1.271-7.566 1.237-7.962-1.041-12.258-4.022-7.58-16.973-14.84-23.04-12.915-3.309 1.05-9.021 6.49-9.021 8.59 0 1.176 1.463 2.623 3.916 3.874 3.4 1.735 8.084 6.638 8.084 8.462 0 .335-2.599-.702-5.775-2.306-13.735-6.933-19.039-6.911-35.484.148-9.183 3.942-12.391 4.953-11.716 3.692 2.522-4.711 11.484-9.337 25.975-13.408 5.368-1.508 15-7.618 15-9.516 0-1.677-4.216-4.946-7.913-6.136-4.35-1.399-6.087-2.688-6.087-4.515 0-2.075 2.108-1.69 9.372 1.709 3.629 1.698 9.642 3.537 13.363 4.086s9.568 1.683 12.994 2.518c6.332 1.545 8.975 3.65 14.835 11.815 1.842 2.567 2.77 2.92 8.651 3.295 8.246.525 12.835-.955 16.735-5.397 1.678-1.91 3.05-2.889 3.05-2.175 0 2.087-6.764 11.537-9.938 13.883-4.374 3.234-2.378 5.369 7.938 8.494 4.675 1.417 9.454 3.458 10.619 4.536 6.18 5.718 10.336 20.101 8.588 29.72-.518 2.851-.617 5.384-.22 5.63 1.278.79 4.792-3.82 7.847-10.292 5.577-11.816 4.823-28.058-1.85-39.883-1.636-2.898-2.525-5.483-1.998-5.808.522-.323 2.545 2.58 4.494 6.452 4.187 8.313 6.578 9.131 11.083 3.789 4.294-5.093 5.691-9.425 5.253-16.297-.322-5.052-1.158-7.412-4.795-13.534-5.837-9.825-11.68-15.9-21.722-22.581-12.098-8.05-24.52-10.796-30.091-6.651-4.2 3.124-3.858 5.393 1.304 8.644 2.473 1.557 6.602 5.607 9.177 9s6.222 7.912 8.105 10.043c2.632 2.977 3.115 4.064 2.086 4.7-.92.568-2.252-.329-4.264-2.874-5.218-6.596-18.46-19.08-22.338-21.058-4.971-2.536-20.15-5.337-24.969-4.609-7.372 1.115-19.405-1.927-30.439-7.695-9.812-5.129-10.495-5.706-17.399-14.722-8.751-11.428-24.144-25.653-29.312-27.089-5.374-1.492-8.643-1.255-10.466.76M154.632 135.75c-.289 1.512-.818 5.225-1.174 8.25-.67 5.682-4.627 16.071-7.386 19.392-2.691 3.238-11.13 6.588-16.624 6.598-7.087.014-41.301 6.456-44.198 8.323-4.518 2.91 3.255 11.04 16.966 17.745 9.806 4.795 10.371 4.942 19.004 4.942 4.893 0 12.133-.501 16.088-1.113 6.892-1.067 16.381-4.914 17.927-7.268 1.417-2.159.745-8.739-1.305-12.756-1.138-2.231-1.847-4.279-1.575-4.551 1.425-1.426 4.689 1.276 6.313 5.225 1.008 2.45 2.282 4.312 2.832 4.137s2.558-4.335 4.462-9.246c2.964-7.644 3.468-10.161 3.5-17.499.034-7.605-.302-9.235-2.98-14.472-2.644-5.169-7.979-10.457-10.55-10.457-.425 0-1.01 1.238-1.3 2.75m21.321 10.487c-.026.144-.138 7.037-.25 15.317l-.203 15.054-3.714 7.446c-3.95 7.921-8.186 13.078-12.588 15.327-6.185 3.16-19.483 5.619-30.388 5.619-5.946 0-10.81.389-10.81.865 0 2.255 4.693 6.361 10.302 9.014 7.656 3.621 21.363 6.479 28.312 5.903 6.312-.523 16.162-6.506 22.667-13.767 5.45-6.082 11.957-21.106 12.504-28.867.601-8.539-2.702-20.759-7.531-27.859-.732-1.077-8.183-4.714-8.301-4.052"/><path fill="#1976D2" fill-opacity=".3" fill-rule="evenodd" d="M20 2.496c-4.866 1.79-7.633 3.614-11.006 7.252C.524 18.884 1 11.831 1 128.292v102.617l2.445 6.796c2.968 8.247 9.805 15.278 16.702 17.174 3.284.903 30.269 1.127 109.853.909l105.5-.288 5.12-2.701c5.583-2.945 9.505-7.029 12.167-12.67 1.584-3.356 1.713-11.716 1.713-111.2V21.359l-3.01-5.887c-1.849-3.614-4.637-7.127-7.226-9.101-8.668-6.611-4.34-6.377-116.418-6.319L26.5.104zm27.45 21.911c-4.201 1.829-7.905 6.522-10.388 13.156-1.888 5.048-1.98 6.244-.937 12.236 1.191 6.837 6.354 17.863 12.13 25.907 2.215 3.083 7.346 7.065 17.952 13.928 16.507 10.682 15.656 9.264 11.345 18.912-1.24 2.775-3.591 6.6-5.224 8.5-6.774 7.879-15.769 20.542-16.962 23.879-1.754 4.906-1.68 14.388.147 18.76C57.159 163.626 71.124 178 73.305 178c.74 0 3.486 3.379 6.102 7.508 5.155 8.137 9.349 11.611 20.081 16.633 4.37 2.045 7.099 4.073 8.472 6.295 3.753 6.071 26.037 15.558 41.326 17.592 7.97 1.061 9.328.98 15.606-.927 10.374-3.15 20.619-12.817 27.084-25.553 2.018-3.976 4.119-6.751 5.412-7.146 4.106-1.255 10.496-7.466 13.048-12.681 3.3-6.746 5.781-19.604 4.967-25.743-.579-4.365-.451-4.749 1.764-5.305 6.181-1.551 10.929-11.584 11.203-23.673.537-23.631-26.08-52.48-52.634-57.047-8.44-1.451-10.033-1.045-17.534 4.477l-6.054 4.457-9.824-.966c-15.475-1.52-29.076-4.673-36.32-8.419-5.46-2.824-17.21-12.869-19.703-16.845-5.614-8.955-13.54-18.609-18.906-23.027-5.241-4.314-6.009-4.627-11.26-4.591-3.099.022-7.007.637-8.685 1.368m-.836 8.843C44.78 36.133 42 44.469 42 47.088c0 1.109.698 5.088 1.552 8.841 1.318 5.795 2.436 7.874 7.42 13.795 8.203 9.745 22.461 20.346 32.778 24.371 8.589 3.35 10.88 5.489 4.622 4.315-4.787-.898-4.226 1.374.95 3.848 4.325 2.067 4.728 3.337 1.042 3.281-2.192-.032-3.836 1.588-9.75 9.604-3.913 5.303-9.017 12.081-11.342 15.061-4.929 6.317-7.272 12.27-7.272 18.471 0 5.831 1.61 8.697 8.674 15.434 5.357 5.108 6.473 5.711 12.519 6.764 6.031 1.05 7.535.928 16.472-1.346 5.409-1.376 14.56-3.212 20.335-4.079 16.918-2.542 18-2.949 18-6.777 0-1.786-.893-5-1.985-7.141s-1.801-4.078-1.576-4.303c1.24-1.239 6.092 2.633 6.92 5.523.512 1.787 1.203 3.249 1.536 3.249.333-.001 1.66-2.589 2.949-5.75 3.103-7.609 3.987-18.741 1.821-22.93-3.392-6.56-15.379-13.719-21.085-12.593-3.65.72-10.547 6.137-10.536 8.274.004.825 1.744 2.3 3.867 3.278 3.189 1.468 9.089 8.099 9.089 10.215 0 .295-2.588-.77-5.75-2.366-6.733-3.398-15.414-6.127-19.492-6.127-1.583 0-8.919 2.475-16.302 5.5S73.777 139 73.465 139s.645-1.589 2.126-3.531c3.133-4.107 13.611-9.479 23.359-11.975 5.925-1.518 17.05-7.675 17.05-9.436 0-1.488-3.601-3.948-8.395-5.734-5.504-2.051-7.774-4.555-5.861-6.468.931-.931 2.932-.399 8.977 2.39 7.773 3.585 15.798 5.754 21.291 5.754 1.602 0 5.385.925 8.406 2.055 4.432 1.658 6.214 3.059 9.225 7.25 2.053 2.857 3.864 5.373 4.025 5.591.16.218 2.663.785 5.561 1.259 7.829 1.282 13.894-.442 18.157-5.161 3.266-3.615 4.614-4.068 4.614-1.55 0 1.568-7.579 11.626-10.729 14.237-3.627 3.007-1.984 4.726 7.095 7.422 10.157 3.016 11.747 4.06 15.315 10.053 3.902 6.556 5.814 15.832 4.956 24.041-.622 5.951-.588 6.069 1.252 4.403 1.041-.941 3.351-4.45 5.135-7.796 6.001-11.259 5.088-29.554-2.051-41.12-3.493-5.66-3.498-5.684-1.188-5.684 1.203 0 2.837 2.132 5.008 6.534 1.772 3.594 3.859 6.779 4.636 7.077 2.364.907 5.363-1.401 8.29-6.379 2.308-3.928 2.772-5.855 2.727-11.337-.049-5.929-.51-7.406-4.5-14.419-2.445-4.297-6.53-9.962-9.078-12.59-7.055-7.276-20.439-15.573-27.995-17.354-9.237-2.178-11.375-1.965-15.107 1.503l-3.266 3.034 2.459 1.716c5.331 3.719 8.316 6.746 15.98 16.2 6.562 8.095 7.672 9.95 6.274 10.487-1.248.479-3.148-1.023-7.163-5.66-7.57-8.745-13.829-14.597-18.602-17.395C156.396 83.456 143.902 81 133.886 81c-10.879 0-17.026-1.429-26.269-6.106-10.993-5.564-13.62-7.705-20.469-16.684-7.292-9.559-22.098-23.873-26.668-25.783C58.601 31.642 55.035 31 52.555 31c-3.585 0-4.802.461-5.941 2.25m107.568 109.176c-.75 5.192-2.402 10.956-4.303 15.018-4.335 9.265-8.082 11.34-23.769 13.163-10.392 1.207-18.493 2.68-36.36 6.613-4.262.938-4.75 1.327-4.75 3.796 0 3.755 5.856 8.883 15.923 13.945 11.262 5.663 14.993 6.302 29.445 5.047 9.881-.858 13.279-1.59 18.321-3.95 5.476-2.562 6.265-3.297 6.843-6.375.605-3.228-.062-5.383-4.34-14.01-.225-.455.877-.68 2.449-.5 2.3.263 3.338 1.294 5.311 5.276l2.452 4.949 2.339-5.337c1.286-2.935 3.272-8.739 4.413-12.899 2.402-8.754 2.088-14.398-1.228-22.107-2.144-4.985-7.78-11.055-10.262-11.055-.824 0-1.691 2.941-2.484 8.426m21.968 17.214c.12 9.342-.28 14.377-1.462 18.407-1.881 6.416-8.158 16.604-12.179 19.767-5.278 4.152-22.556 8.186-35.058 8.186-8.858 0-9.847.604-6.492 3.959 5.807 5.807 28.525 12.298 37.288 10.654 4.521-.848 13.975-6.977 19.871-12.881 5-5.008 12.213-19.697 13.44-27.369.921-5.763-1.184-17.065-4.474-24.016-3.09-6.529-4.356-7.875-8.347-8.877l-2.752-.69z"/><path fill="#1976D2" fill-opacity=".591" fill-rule="evenodd" d="M27 .984c-.825.476-3.659 1.414-6.298 2.084C13.704 4.845 8.285 9.19 5.436 15.31c-1.329 2.854-2.421 6.176-2.426 7.381S2.55 25.16 2 25.5C.81 26.236.574 231 1.763 231c.42 0 1.32 2.362 2.001 5.25 1.84 7.81 5.696 12.73 12.736 16.25l6 3h211l5.288-2.389c6.593-2.98 12.596-9.607 14.095-15.562.787-3.124 1.117-35.273 1.117-108.81 0-118.551.458-111.56-7.861-119.877-3.152-3.151-6.081-5.024-9.139-5.843-2.475-.664-5.281-1.614-6.236-2.113C228.527-.261 29.024-.185 27 .984m22.791 22.004c-5.049 1.523-8.69 5.062-11.888 11.557-2.891 5.874-3.128 7.05-2.563 12.714.702 7.039 8.159 23.379 13.7 30.02 1.735 2.079 9.41 7.863 17.057 12.855C73.744 95.125 80 99.595 80 100.067c0 4.043-5.366 13.295-14.456 24.925-8.326 10.65-10.67 14.37-11.501 18.242-1.434 6.687-1.307 11.198.431 15.358 2.07 4.953 10.106 14.072 15.754 17.875 2.809 1.892 6.332 5.632 8.59 9.12 4.995 7.716 9.676 11.705 19.033 16.221 4.207 2.031 7.805 4.046 7.995 4.479 1.461 3.326 6.779 7.594 13.107 10.518 21.16 9.776 37.039 12.453 48.547 8.184 8.09-3.001 18.8-13.664 23.902-23.794 2.815-5.59 4.425-7.581 7.351-9.092 5.152-2.659 10.751-8.717 13.035-14.103 2.672-6.303 4.545-17.179 3.977-23.095-.466-4.852-.387-5.036 2.729-6.338 6.206-2.593 10.455-12.398 10.49-24.212C229.062 98.833 196.347 67 170.04 67c-4.685 0-6.6.841-13 5.709-4.429 3.369-4.515 3.388-12.5 2.789-32.033-2.402-47.6-9.952-60.821-29.498-5.727-8.466-16.855-20.488-20.919-22.598-2.936-1.524-8.716-1.708-13.009-.414m-1.413 9.46c-5.539 3.879-6.958 18.944-2.69 28.568 4.577 10.323 23.753 26.899 37.548 32.459 4.841 1.951 8.397 3.987 8.585 4.917.262 1.294-.291 1.465-3 .929-3.016-.598-3.195-.505-1.949 1.01.755.918 2.128 1.669 3.05 1.669 1.753 0 4.078 1.824 4.078 3.2 0 .44-1.463.809-3.25.819-2.935.018-3.778.795-8.7 8.031-2.998 4.406-7.622 10.578-10.276 13.717-6.721 7.949-9.107 13.281-9.107 20.349 0 4.726.519 6.545 2.814 9.857 4.766 6.877 9.779 10.718 15.725 12.049 6.513 1.457 10.876 1.053 25.294-2.344 6.05-1.425 14.72-3.049 19.267-3.609 13.089-1.611 14.33-3.163 9.843-12.319l-2.328-4.75h2.359c2.882 0 6.359 3.281 6.359 6 0 6.215 4.401-3.035 6.139-12.901 1.885-10.699-1.671-17.229-12.356-22.689-6.867-3.509-10.903-3.2-15.78 1.206-2.202 1.989-4.003 3.977-4.003 4.418s1.679 1.626 3.73 2.634c3.407 1.673 10.27 9.267 10.27 11.364 0 .482-3.814-.954-8.476-3.191-6.177-2.964-10.178-4.202-14.75-4.565-5.848-.464-7.219-.118-20.204 5.099-7.662 3.079-14.08 5.448-14.262 5.266s1.447-2.353 3.622-4.824c4.383-4.979 11.801-8.79 22.136-11.371 7.687-1.92 17.215-7.75 16.735-10.242-.194-1.005-2.844-2.708-6.532-4.197-7.784-3.144-8.706-4.027-6.854-6.56 1.566-2.142.465-2.392 13.443 3.053 3.497 1.467 8.897 2.903 12 3.191 10.209.948 16.277 3.206 20.675 7.694 2.218 2.263 4.702 5.171 5.52 6.462 1.242 1.959 2.569 2.433 8.045 2.873 7.683.616 14.61-1.818 17.433-6.126 2.058-3.142 3.469-3.337 3.469-.479 0 2.573-7.661 13.308-10.67 14.952-4.181 2.284-1.614 4.222 9.849 7.44 3.124.876 6.837 2.504 8.251 3.617 6.488 5.103 11.264 19.726 9.691 29.675-.452 2.861-.462 5.201-.021 5.201s2.379-2.819 4.305-6.265c6.974-12.469 6.929-27.331-.122-40.928-1.909-3.682-3.177-7.169-2.818-7.75 1.632-2.641 3.86-.696 6.81 5.943 3.451 7.767 5.659 8.879 9.434 4.75 5.918-6.472 7.133-17.185 2.898-25.533-6.56-12.929-16.723-22.97-30.076-29.718-8.825-4.46-18.68-5.758-22.869-3.013-1.464.959-2.662 2.275-2.662 2.924 0 .648 2.211 2.865 4.912 4.925 2.702 2.061 6.159 5.416 7.683 7.456s5.028 6.349 7.788 9.576c4.824 5.64 4.942 5.922 3.07 7.291-1.795 1.313-2.293 1.012-6.385-3.867-7.405-8.827-16.547-17.484-20.701-19.604C155.362 83.634 146.539 82 137.758 82c-9.096 0-20.017-1.754-25.465-4.089-11.221-4.809-17.868-9.684-24.01-17.608-9.121-11.767-25.148-26.894-29.89-28.211-5.228-1.452-7.552-1.369-10.015.356m107.278 104.831c-.305 1.772-.863 5.471-1.24 8.221-.895 6.538-6.558 17.753-10.316 20.429-4.304 3.065-10.663 5.071-16.071 5.071-2.596 0-10.527 1.129-17.625 2.509-23.677 4.604-24.875 4.944-25.202 7.15-.472 3.183 6.616 9.355 16.438 14.315 7.9 3.99 9.736 4.515 16.947 4.846 12.307.566 24.585-1.249 30.729-4.542 4.79-2.567 5.206-3.083 5.48-6.793.206-2.795-.463-5.442-2.205-8.718-2.674-5.03-2.18-6.383 1.955-5.345 1.59.399 3.25 2.219 4.794 5.257l2.361 4.646 2.564-6.912c5.364-14.459 6.152-19.249 4.309-26.177-1.879-7.063-6.016-13.896-9.507-15.701-2.827-1.462-2.861-1.445-3.411 1.744m21.31 9.945c-.019.152-.165 6.576-.324 14.276-.16 7.7-.837 15.677-1.507 17.727-2.089 6.401-10.586 18.096-14.914 20.529-6.546 3.679-20.447 6.517-31.471 6.424-5.362-.045-9.75.323-9.75.818 0 1.394 6.1 5.716 11.337 8.033 7.015 3.103 23.368 6.05 27.9 5.028 4.904-1.106 11.282-4.922 17.361-10.388 6.396-5.75 14.515-21.984 15.214-30.422 1.015-12.238-4.316-27.39-10.82-30.753-1.646-.851-3.008-1.423-3.026-1.272"/></svg>